<svg class="w-6 h-6" width="24" height="24" viewBox="0 0 24 24" fill="none" xmlns="http://www.w3.org/2000/svg"><path d="M11 21V13C11 12.4477 11.4477 12 12 12C12.5523 12 13 12.4477 13 13V21C13 21.5523 12.5523 22 12 22C11.4477 22 11 21.5523 11 21Z" fill="#686583" style="fill-opacity:1;"/><path d="M8.36978 2.02809C9.57988 1.93212 10.7965 2.11279 11.9264 2.55641C13.0562 3.00005 14.0707 3.69509 14.8922 4.58864C15.5422 5.29569 16.0556 6.11344 16.4147 6.99977H17.4997L17.7204 7.00466C18.8225 7.04874 19.8883 7.42274 20.777 8.08181C21.7247 8.78461 22.4207 9.77407 22.7633 10.9031C23.1059 12.0324 23.076 13.2422 22.6784 14.3533C22.2807 15.4643 21.5366 16.4185 20.5553 17.074L20.4674 17.1258C20.0197 17.3633 19.4562 17.2281 19.1686 16.7976C18.8618 16.3384 18.9857 15.7177 19.445 15.4109L19.6715 15.2449C20.1839 14.8397 20.5742 14.298 20.7956 13.6795C21.0486 12.9725 21.0682 12.2027 20.8502 11.4841C20.6323 10.7655 20.1888 10.1356 19.5856 9.68825C19.0579 9.29694 18.432 9.06382 17.7809 9.01149L17.4997 8.99977H15.7096C15.2677 8.99961 14.8781 8.7094 14.7516 8.28591C14.4912 7.4137 14.0356 6.61228 13.4196 5.94216C12.8034 5.27193 12.0424 4.75046 11.195 4.41774C10.3476 4.08511 9.43545 3.94929 8.52798 4.02126C7.62048 4.09327 6.74104 4.37068 5.95669 4.83278C5.17228 5.29492 4.50347 5.93026 4.00064 6.68923C3.49794 7.44809 3.17405 8.31128 3.05435 9.21364C2.93464 10.1162 3.02261 11.0344 3.31021 11.8982C3.59781 12.7619 4.07774 13.5494 4.7145 14.2C5.10067 14.5947 5.09448 15.2278 4.69985 15.614C4.30522 16.0003 3.67212 15.9929 3.28579 15.5984L2.9772 15.2644C2.28054 14.4667 1.7473 13.5378 1.41177 12.53C1.02831 11.3783 0.912339 10.1543 1.07192 8.95095C1.23152 7.74768 1.66329 6.59664 2.33364 5.58474C3.00409 4.57277 3.89616 3.72631 4.94204 3.11013C5.98778 2.49406 7.15987 2.12411 8.36978 2.02809Z" fill="#686583" style="fill-opacity:1;"/><path d="M11.3691 12.2246C11.7619 11.9043 12.3409 11.9269 12.707 12.293L16.707 16.293L16.7754 16.3692C17.0957 16.7619 17.0731 17.3409 16.707 17.707C16.3409 18.0732 15.7619 18.0958 15.3691 17.7754L15.293 17.707L12 14.4141L8.70702 17.707C8.31649 18.0976 7.68348 18.0976 7.29295 17.707C6.90243 17.3165 6.90243 16.6835 7.29295 16.293L11.293 12.293L11.3691 12.2246Z" fill="#686583" style="fill-opacity:1;"/></svg>