<svg class="w-6 h-6" width="24" height="24" viewBox="0 0 24 24" fill="none" xmlns="http://www.w3.org/2000/svg"><path d="M15.953 15.953C16.3191 15.5869 16.8981 15.5643 17.2909 15.8847L17.3671 15.953L21.7069 20.2929L21.7763 20.369C22.0963 20.7618 22.0729 21.3409 21.7069 21.7069C21.3409 22.0729 20.7618 22.0963 20.369 21.7763L20.2929 21.7069L15.953 17.3671L15.8847 17.2909C15.5643 16.8981 15.5869 16.3191 15.953 15.953Z" fill="#686583" style="fill-opacity:1;"/><path d="M18 11C18 7.13401 14.866 4 11 4C7.13401 4 4 7.13401 4 11C4 14.866 7.13401 18 11 18C14.866 18 18 14.866 18 11ZM20 11C20 15.9706 15.9706 20 11 20C6.02944 20 2 15.9706 2 11C2 6.02944 6.02944 2 11 2C15.9706 2 20 6.02944 20 11Z" fill="#686583" style="fill-opacity:1;"/></svg>